<?xml version="1.0" encoding="UTF-8" standalone="no"?>
<!DOCTYPE svg PUBLIC "-//W3C//DTD SVG 1.1//EN" "http://www.w3.org/Graphics/SVG/1.1/DTD/svg11.dtd">
<svg width="100%" height="100%" viewBox="0 0 20 40" version="1.1" xmlns="http://www.w3.org/2000/svg" xmlns:xlink="http://www.w3.org/1999/xlink" xml:space="preserve" xmlns:serif="http://www.serif.com/" style="fill-rule:evenodd;clip-rule:evenodd;stroke-linejoin:round;stroke-miterlimit:1.41421;">
    <g id="Layer1" transform="matrix(1,0,0,1,0,10)">
        <g transform="matrix(0.865552,0,0,0.865552,1.34448,-8.65552)">
            <path d="M10.452,12.809C10.332,12.689 10.17,12.622 10,12.622C9.83,12.622 9.668,12.689 9.548,12.809C8.451,13.906 5.657,16.7 4.56,17.797C4.31,18.047 3.905,18.047 3.655,17.797C3.238,17.38 2.62,16.762 2.203,16.345C1.953,16.095 1.953,15.69 2.203,15.44C3.3,14.343 6.094,11.549 7.191,10.452C7.311,10.332 7.378,10.17 7.378,10C7.378,9.83 7.311,9.668 7.191,9.548C6.094,8.451 3.3,5.657 2.203,4.56C1.953,4.31 1.953,3.905 2.203,3.655C2.62,3.238 3.238,2.62 3.655,2.203C3.905,1.953 4.31,1.953 4.56,2.203C5.657,3.3 8.451,6.094 9.548,7.191C9.668,7.311 9.83,7.378 10,7.378C10.17,7.378 10.332,7.311 10.452,7.191C11.549,6.094 14.343,3.3 15.44,2.203C15.69,1.953 16.095,1.953 16.345,2.203C16.762,2.62 17.38,3.238 17.797,3.655C18.047,3.905 18.047,4.31 17.797,4.56C16.7,5.657 13.906,8.451 12.809,9.548C12.689,9.668 12.622,9.83 12.622,10C12.622,10.17 12.689,10.332 12.809,10.452C13.906,11.549 16.7,14.343 17.797,15.44C18.047,15.69 18.047,16.095 17.797,16.345C17.38,16.762 16.762,17.38 16.345,17.797C16.095,18.047 15.69,18.047 15.44,17.797C14.343,16.7 11.549,13.906 10.452,12.809Z" style="fill:rgb(127,127,127);"/>
        </g>
        <g transform="matrix(0.84537,0,0,0.84537,1.5463,12.1402)">
            <path d="M19.662,4.097C19.849,4.284 19.849,4.587 19.662,4.774C17.59,6.852 6.678,17.791 6.678,17.791C6.678,17.791 1.697,12.809 0.338,11.451C0.152,11.264 0.152,10.961 0.338,10.774C0.758,10.355 1.468,9.645 1.887,9.226C1.977,9.136 2.099,9.085 2.226,9.085C2.353,9.085 2.475,9.136 2.564,9.226C3.601,10.262 6.661,13.322 6.661,13.322C6.661,13.322 15.574,4.41 17.436,2.548C17.525,2.458 17.647,2.408 17.774,2.408C17.901,2.408 18.023,2.458 18.113,2.548C18.532,2.967 19.243,3.678 19.662,4.097Z" style="fill:rgb(127,127,127);"/>
        </g>
    </g>
</svg>
